<svg xmlns="http://www.w3.org/2000/svg" viewBox="0 0 64 64" width="64" height="64">
  <rect width="64" height="64" rx="14" fill="#0F1B2D"/>
  <circle cx="32" cy="32" r="24" fill="#0F1B2D" stroke="#1E3048" stroke-width="1.5"/>
  <path d="M32 9 A23 23 0 0 1 51.9 19.5" stroke="#F59F0C" stroke-width="3.5" fill="none" stroke-linecap="round"/>
  <path d="M52.6 20.9 A23 23 0 0 1 55 32" stroke="#F59F0C" stroke-width="3.5" fill="none" stroke-linecap="round" opacity="0.75"/>
  <path d="M54.5 34 A23 23 0 0 1 45.4 50.2" stroke="#2A4A6B" stroke-width="3.5" fill="none" stroke-linecap="round"/>
  <path d="M43.5 51.6 A23 23 0 0 1 20.5 51.6" stroke="#2A4A6B" stroke-width="3.5" fill="none" stroke-linecap="round"/>
  <path d="M18.6 50.2 A23 23 0 0 1 9.5 34" stroke="#1E3A55" stroke-width="3.5" fill="none" stroke-linecap="round"/>
  <path d="M9 31 A23 23 0 0 1 12.1 19.5" stroke="#1E3A55" stroke-width="3.5" fill="none" stroke-linecap="round"/>
  <text x="32" y="38" text-anchor="middle" font-family="Georgia, 'Times New Roman', serif" font-size="18" font-weight="700" fill="#F59F0C">?</text>
  <circle cx="32" cy="9" r="2.4" fill="#F59F0C"/>
  <circle cx="55" cy="32" r="2.4" fill="#F59F0C" opacity="0.6"/>
  <circle cx="45.4" cy="50.2" r="2.4" fill="#2A4A6B"/>
  <circle cx="18.6" cy="50.2" r="2.4" fill="#2A4A6B"/>
  <circle cx="9" cy="32" r="2.4" fill="#1E3A55"/>
  <circle cx="18.6" cy="13.8" r="2.4" fill="#1E3A55"/>
</svg>
